<svg xmlns="http://www.w3.org/2000/svg" fill="none" viewBox="0 -0.05 38 37.94">
<path d="M23.5646 7.24424C23.6916 7.37062 23.8966 7.37062 24.0236 7.24424L29.0328 2.25716C29.1825 2.1081 29.1532 1.8521 28.9677 1.74517C27.6625 0.996617 26.2629 0.397131 24.7917 -0.0403327C24.6778 -0.0759779 24.5508 -0.0403332 24.4662 0.0439189L20.6287 3.86443C20.5018 3.99081 20.5018 4.19496 20.6287 4.32134L23.5646 7.24424Z" fill="#ff8000"/>
<path d="M33.9314 20.9449C33.8044 20.8186 33.5994 20.8186 33.4724 20.9449L30.5365 23.8678C30.4096 23.9942 30.4096 24.1984 30.5365 24.3247L35.5002 29.2665C35.6499 29.4155 35.9006 29.3864 36.008 29.2081C36.7891 27.9444 37.4303 26.5866 37.9088 25.1575C37.9479 25.0409 37.9153 24.9113 37.8274 24.8238L33.9281 20.9417L33.9314 20.9449Z" fill="#ff8000"/>
<path d="M10.4898 20.7084L17.4976 13.7317L17.5041 13.7381L18.4708 12.7757C18.5977 12.6493 18.8028 12.6493 18.9297 12.7757L24.9772 18.7965C25.1042 18.9229 25.1042 19.127 24.9772 19.2534L20.5669 23.6443C20.44 23.7706 20.44 23.9748 20.5669 24.1012L23.5028 27.0241C23.6297 27.1504 23.8348 27.1504 23.9617 27.0241L37.9023 13.1451C37.9902 13.0576 38.0227 12.9313 37.9837 12.8146C37.5182 11.3726 36.8835 10.0051 36.1154 8.73162C36.008 8.55015 35.7541 8.52423 35.6044 8.67329L28.8375 15.4102C28.7106 15.5366 28.5055 15.5366 28.3786 15.4102L13.123 0.222145C13.0351 0.134653 12.9049 0.102248 12.7878 0.141134C11.3524 0.620723 9.98858 1.25909 8.71918 2.03357C8.54016 2.14374 8.51413 2.39326 8.66059 2.53908L15.0759 8.92604C15.2029 9.05242 15.2029 9.25657 15.0759 9.38295L9.02839 15.4037C8.90145 15.5301 8.6964 15.5301 8.56946 15.4037L2.28757 9.15936C2.13459 9.00706 1.87746 9.03946 1.7733 9.22741C1.03119 10.5398 0.438805 11.9429 0.0124172 13.4206C-0.0201314 13.534 0.0124172 13.6571 0.0970437 13.7414L5.17138 18.7933C5.29832 18.9196 5.29832 19.1238 5.17138 19.2502L0.158886 24.2405C0.0742597 24.3247 0.041711 24.4511 0.0742597 24.5645C0.513667 26.026 1.11582 27.4194 1.86444 28.7156C1.97185 28.9003 2.22573 28.9295 2.3787 28.7804L10.4898 20.7051V20.7084Z" fill="#ff8000"/>
<path d="M20.3391 27.2541L14.0539 20.9968C13.927 20.8704 13.7219 20.8704 13.595 20.9968L10.7209 23.8581C10.594 23.9845 10.594 24.1886 10.7209 24.315L15.0759 28.6508C15.2029 28.7772 15.2029 28.9813 15.0759 29.1077L8.82985 35.3261C8.68012 35.4752 8.70942 35.7247 8.88844 35.8349C10.1709 36.5996 11.5412 37.2315 12.9896 37.6949C13.1067 37.7338 13.2369 37.7014 13.3216 37.6139L18.4675 32.4907C18.5944 32.3643 18.7995 32.3643 18.9264 32.4907L24.2481 37.7889C24.3328 37.8731 24.4565 37.9056 24.5704 37.8731C26.022 37.4584 27.4054 36.8816 28.7008 36.1654C28.8896 36.0617 28.9221 35.8025 28.7692 35.6534L20.3293 27.2509L20.3391 27.2541Z" fill="#ff8000"/>
</svg>